<svg width="124" height="64" viewBox="0 0 124 64" fill="none" xmlns="http://www.w3.org/2000/svg">
<path d="M25.7014 13.5167H28.0916V12.809C27.2531 11.3673 26.4364 10.7714 25.7014 10.6506V13.5167Z" fill="#3FA148"/>
<path d="M25.101 13.5167V10.6511C23.6448 10.8974 22.6308 12.809 22.6308 12.809V13.5167H25.101Z" fill="#3FA148"/>
<path d="M25.101 14.112H22.6308V17.0023H25.101V14.112Z" fill="#3FA148"/>
<path d="M25.7014 17.0023H28.0916V14.112H25.7014V17.0023Z" fill="#3FA148"/>
<path d="M25.101 17.0023H22.6308V14.112H25.101V17.0023Z" fill="#3FA148"/>
<path d="M76.8028 19.8507C76.8028 20.2147 76.6778 20.5194 76.4238 20.7672C76.1713 21.0181 75.8583 21.1416 75.4903 21.1416C75.123 21.1416 74.8113 21.0181 74.5575 20.7672C74.3033 20.5194 74.1783 20.2147 74.1783 19.8507C74.1783 19.4889 74.3033 19.1846 74.5575 18.9339C74.8113 18.6849 75.123 18.5612 75.4903 18.5612C75.8583 18.5612 76.1713 18.6849 76.4238 18.9339C76.6778 19.1846 76.8028 19.4889 76.8028 19.8507Z" fill="#3FA148"/>
<path d="M84.4637 19.1672C84.4637 19.7378 84.2357 20.2003 83.7779 20.5599C83.2607 20.9492 82.5122 21.1416 81.5349 21.1416C80.4379 21.1416 79.6452 20.9336 79.1572 20.5145C78.6077 20.0366 78.3332 19.2059 78.3332 18.0229V13.9147C78.3332 12.7336 78.6077 11.895 79.1572 11.399C79.6452 10.9817 80.4379 10.7699 81.5349 10.7699C82.5122 10.7699 83.2607 10.9738 83.7779 11.3767C84.2357 11.7229 84.4637 12.1777 84.4637 12.748V14.1376H82.3817V12.748C82.3817 12.5685 82.3009 12.4041 82.1437 12.2525C81.9819 12.1045 81.7647 12.0286 81.4909 12.0286C80.9097 12.0286 80.6212 12.2605 80.6212 12.7239V19.1906C80.6212 19.6543 80.9097 19.8849 81.4909 19.8849C81.7647 19.8849 81.9819 19.8125 82.1437 19.6615C82.3009 19.5109 82.3817 19.3465 82.3817 19.1672V17.7759H84.4637V19.1672Z" fill="#3FA148"/>
<path d="M103.742 21.1416H101.643V12.8794C101.643 12.4259 101.457 12.1975 101.094 12.1975H99.8352V21.1416H97.7364V12.8794C97.7364 12.4259 97.5569 12.1975 97.1967 12.1975H95.9564V21.1416H93.7184V10.9983H95.9564V11.1344C96.2574 10.938 96.7139 10.8391 97.3169 10.8391C98.4384 10.8391 99.1722 11.0211 99.5179 11.3829L99.8352 11.1344C100.14 10.938 100.593 10.8391 101.199 10.8391C101.956 10.8391 102.509 10.9083 102.856 11.0449C103.447 11.2701 103.742 11.7321 103.742 12.4244V21.1416Z" fill="#3FA148"/>
<path d="M107.965 19.8507C107.965 20.2147 107.836 20.5194 107.583 20.7672C107.329 21.0181 107.02 21.1416 106.651 21.1416C106.283 21.1416 105.973 21.0181 105.72 20.7672C105.465 20.5194 105.34 20.2147 105.34 19.8507C105.34 19.4889 105.465 19.1846 105.72 18.9339C105.973 18.6849 106.283 18.5612 106.651 18.5612C107.02 18.5612 107.329 18.6849 107.583 18.9339C107.836 19.1846 107.965 19.4889 107.965 19.8507Z" fill="#3FA148"/>
<path d="M112.176 18.0394L114.548 10.9982H116.696L113.293 21.1415H111.057L107.655 10.9982H109.733L112.176 18.0394Z" fill="#3FA148"/>
<path d="M124 21.1416H121.901V12.8794C121.901 12.4259 121.721 12.1975 121.359 12.1975H120.118V21.1416H117.882V10.9983H120.118V11.1344C120.42 10.938 120.872 10.8391 121.474 10.8391C122.224 10.8391 122.774 10.9083 123.121 11.0449C123.708 11.2701 124 11.7321 124 12.4244V21.1416Z" fill="#3FA148"/>
<path d="M89.5721 19.3673V12.651C89.5721 12.2803 89.2508 12.0953 88.6076 12.0953C87.9796 12.0953 87.6663 12.2803 87.6663 12.651V19.3673C87.6663 19.738 87.9796 19.923 88.6076 19.923C89.2508 19.923 89.5721 19.738 89.5721 19.3673ZM91.8805 19.1446C91.8805 19.8402 91.6643 20.3436 91.2313 20.656C90.7365 21.0119 89.8946 21.1899 88.6971 21.1899C86.4551 21.1899 85.3363 20.5082 85.3363 19.1446V12.8952C85.3363 11.517 86.4551 10.8277 88.6971 10.8277C89.8946 10.8277 90.7365 11.0072 91.2313 11.3638C91.6643 11.6889 91.8805 12.1992 91.8805 12.8952V19.1446Z" fill="#3FA148"/>
<path d="M123.201 51.0635C123.154 51.0429 123.121 51.0154 123.109 50.973C123.019 50.8951 122.911 50.8133 122.791 50.734C121.426 50.09 116.15 49.1549 116.113 49.1492C115.867 49.1298 115.619 49.1112 115.377 49.0939C11.7923 41.5173 5.65778 50.7471 5.65778 50.7471C-0.151211 54.5867 8.55453 52.9875 8.55453 52.9875C71.8602 43.9368 121.083 51.9103 121.083 51.9103C123.345 51.9198 123.652 51.5332 123.201 51.0635Z" fill="#00508B"/>
<path d="M77.6253 41.8808C78.5606 42.5766 79.9636 42.9233 81.8338 42.9233C85.1163 42.9233 86.7583 41.8141 86.7583 39.594V34.0846H81.7448V36.2843H83.7451V39.594C83.7451 39.9618 83.5596 40.3082 83.1906 40.636C82.8238 40.9643 82.3908 41.1282 81.8938 41.1282C81.3366 41.1282 80.8598 40.9842 80.4603 40.6945C80.0631 40.4056 79.8646 40.0389 79.8646 39.594V28.7438C79.8646 27.9507 80.5258 27.5557 81.8493 27.5557C83.0723 27.5557 83.6846 27.9329 83.6846 28.6847V31.5213H86.6093V28.5987C86.6093 27.3633 86.0516 26.5244 84.9376 26.08C84.2011 25.7902 83.0978 25.6458 81.6246 25.6458C80.0326 25.6458 78.7703 25.9412 77.8341 26.5271C76.8983 27.1173 76.4316 27.9612 76.4316 29.0617V39.594C76.4316 40.5403 76.8293 41.3018 77.6253 41.8808Z" fill="#00508B"/>
<path d="M44.3587 40.1278C44.3587 40.751 43.8692 41.0622 42.8902 41.0622C41.8112 41.0622 41.2715 40.751 41.2715 40.1278V29.1107C41.2715 28.5384 41.837 28.2522 42.9657 28.2522C43.8942 28.2522 44.3587 28.5017 44.3587 28.9996V40.1278ZM7.00949 28.9639C7.00949 28.4645 7.48624 28.2145 8.44024 28.2145C9.54399 28.2145 10.0967 28.5019 10.0967 29.0762V40.1251C10.0967 40.7492 9.56949 41.0622 8.51499 41.0622C7.51124 41.0622 7.00949 40.7492 7.00949 40.1251V28.9639ZM4.33575 42.4431C5.08925 42.9421 6.43174 43.1903 8.36499 43.1903C12.1047 43.1903 13.9745 42.0451 13.9745 39.7539V28.9616C13.9745 26.9697 12.732 25.9741 10.2472 25.9741C9.92074 25.9741 9.48124 25.987 8.92999 26.0115C8.37699 26.0363 8.01299 26.0487 7.83774 26.0487C7.46099 26.0487 7.08474 26.2111 6.70774 26.5337V18.9545L25.3417 3.94175L44.6957 18.9128V20.9313L44.6977 23.3101V26.5337C44.2962 26.2352 43.9072 26.0859 43.5305 26.0859C43.38 26.0859 43.041 26.0666 42.5142 26.0301C41.9875 25.9922 41.5725 25.9741 41.2715 25.9741C38.6857 25.9741 37.3937 26.9697 37.3937 28.9616V39.7539C37.3937 42.0451 39.2625 43.1903 43.0037 43.1903C44.9362 43.1903 46.3037 42.9294 47.107 42.4062C47.8102 41.9333 48.1612 41.1361 48.1612 40.0165V20.6841H51.1272L25.871 -1.26844e-05H24.9417L0 20.6841H3.173H3.2065V20.722V40.0165C3.2065 41.1361 3.58325 41.9452 4.33575 42.4431Z" fill="#00508B"/>
<path d="M23.0485 40.4639H21.331C20.6438 40.4639 20.3005 40.1902 20.3005 39.6417V36.0153C20.3005 35.3173 20.6005 34.8307 21.2003 34.5567L23.0485 33.7139V40.4639ZM22.4843 31.5387C21.0028 32.2605 19.6228 32.9199 18.3425 33.518C17.564 33.8914 17.0433 34.3646 16.78 34.9366C16.5163 35.5099 16.3845 36.5427 16.3845 38.037C16.3845 40.1279 16.7608 41.5347 17.5143 42.2568C17.9658 42.6553 18.6435 42.8539 19.5475 42.8539H26.7388V30.8295C26.7388 28.8623 26.287 27.4804 25.3833 26.6829C24.5798 25.9618 23.2873 25.6002 21.505 25.6002C19.874 25.6002 18.6305 25.9367 17.7778 26.6085C17.0493 27.182 16.686 27.9411 16.686 28.8864V31.2022H20.0743V28.8864C20.0743 28.588 20.2138 28.3148 20.4935 28.0653C20.7735 27.8166 21.1295 27.6921 21.5618 27.6921C22.5533 27.6921 23.0485 28.0782 23.0485 28.8504V30.8295C23.0485 31.1531 22.8605 31.3894 22.4843 31.5387Z" fill="#00508B"/>
<path d="M34.2311 42.8538V28.2522H35.5871V26.1231H34.2311V21.2317L30.4286 23.3602V26.1231H28.8094V28.2522H30.4286V42.8538H34.2311Z" fill="#00508B"/>
<path d="M54.5997 28.8503C54.5997 28.2276 55.1272 27.9159 56.1814 27.9159C57.2599 27.9159 57.8002 28.2276 57.8002 28.8503V40.1278C57.8002 40.751 57.2599 41.0622 56.1814 41.0622C55.1272 41.0622 54.5997 40.751 54.5997 40.1278V28.8503ZM50.6847 39.7539C50.6847 42.0451 52.5669 43.1903 56.3322 43.1903C58.3394 43.1903 59.7582 42.8917 60.5864 42.2941C61.3142 41.7709 61.6784 40.9255 61.6784 39.7539V29.2602C61.6784 28.0898 61.3142 27.231 60.5864 26.683C59.7582 26.0859 58.3394 25.7871 56.3322 25.7871C52.5669 25.7871 50.6847 26.9444 50.6847 29.2602V39.7539Z" fill="#00508B"/>
<path d="M67.739 28.1024H69.784C70.379 28.1024 70.6763 28.4771 70.6763 29.2259V42.8537H74.1405V28.4761C74.1405 27.3309 73.656 26.5711 72.6893 26.1974C72.1195 25.974 71.2125 25.8622 69.9728 25.8622C68.9805 25.8622 68.2358 26.0244 67.739 26.3475V26.1233H64.0503V42.8537H67.739V28.1024Z" fill="#00508B"/>
<path d="M88.947 32.659C89.3233 34.4513 90.917 35.348 93.7288 35.348H94.067C94.8453 35.348 95.2338 35.744 95.2338 36.5353V39.9486C95.2338 40.7156 94.7448 41.0995 93.766 41.0995C93.3385 41.0995 92.987 40.9747 92.712 40.7255C92.4355 40.4771 92.297 40.2023 92.297 39.9038V37.5879H88.909V39.9038C88.909 40.85 89.2733 41.6219 90.0005 42.2193C90.854 42.867 92.0965 43.1901 93.7288 43.1901C95.5108 43.1901 96.803 42.8425 97.6068 42.1444C98.5098 41.3479 98.9623 39.966 98.9623 37.9993V36.3935C98.9623 35.4975 98.5855 34.7633 97.8325 34.19C96.979 33.5423 95.748 33.2192 94.1428 33.2192H93.766C93.0135 33.2192 92.6368 32.8237 92.6368 32.0326V29.1775C92.6368 28.4112 93.1128 28.0276 94.067 28.0276C94.5185 28.0276 94.8828 28.1531 95.1593 28.4016C95.435 28.6508 95.573 28.9248 95.573 29.2229V31.5387H98.9623V29.2229C98.9623 28.2768 98.5975 27.5178 97.8705 26.9445C97.0168 26.273 95.7738 25.9367 94.1428 25.9367C92.4858 25.9367 91.2555 26.235 90.4523 26.8329C89.549 27.5054 89.0345 28.6629 88.909 30.3062C88.8838 30.5307 88.8838 31.3147 88.909 32.659H88.947Z" fill="#00508B"/>
<path d="M107.81 40.4639H106.093C105.405 40.4639 105.061 40.1902 105.061 39.6417V36.0153C105.061 35.3173 105.362 34.8307 105.962 34.5567L107.81 33.7139V40.4639ZM107.246 31.5387C105.764 32.2605 104.384 32.9199 103.104 33.518C102.326 33.8914 101.804 34.3646 101.542 34.9366C101.278 35.5099 101.146 36.5427 101.146 38.037C101.146 40.1279 101.523 41.5347 102.275 42.2568C102.727 42.6553 103.405 42.8539 104.309 42.8539H111.501V30.8295C111.501 28.8623 111.048 27.4804 110.145 26.6829C109.341 25.9618 108.048 25.6002 106.266 25.6002C104.635 25.6002 103.392 25.9367 102.539 26.6085C101.81 27.182 101.447 27.9411 101.447 28.8864V31.2022H104.836V28.8864C104.836 28.588 104.975 28.3148 105.255 28.0653C105.535 27.8166 105.891 27.6921 106.323 27.6921C107.314 27.6921 107.81 28.0782 107.81 28.8504V30.8295C107.81 31.1531 107.622 31.3894 107.246 31.5387Z" fill="#00508B"/>
<path d="M122.512 26.1975C121.941 25.9741 121.035 25.862 119.795 25.862C118.802 25.862 118.058 26.0242 117.562 26.3476V26.1231H113.872V42.8538H117.562V28.1025H119.607C120.202 28.1025 120.499 28.4771 120.499 29.226V42.8538H123.963V28.4762C123.963 27.331 123.479 26.5712 122.512 26.1975Z" fill="#00508B"/>
</svg>
